<svg xmlns="http://www.w3.org/2000/svg" shape-rendering="geometricPrecision" text-rendering="geometricPrecision" image-rendering="optimizeQuality" fill-rule="evenodd" clip-rule="evenodd" viewBox="0 0 512 512.001"><path d="M256 0c141.385 0 256 114.615 256 256 0 141.386-114.615 256.001-256 256.001S0 397.386 0 256C0 114.615 114.615 0 256 0zm84.612 201.62c-3.88-31.345-29.619-40.265-62.659-42.711l-.517-27.705-25.587.077 1.033 26.815-20.994.354-.33-27.003-26.29.266 1.41 28.22-16.4.628-35.288.417 1.158 26.805 17.994-.304c10.59.175 14.582 6.637 14.495 11.934 1.162 41.42 1.777 70.56 2.62 113.775-.464 3.892-2.146 8.86-9.739 8.637l-17.994.302-4.602 30.607 50.985-.858 1.596 28.923 24.696-.592-.518-27.707 19.399-.679 1.222 27.518 25.587-.077-.706-28.41c42.828-3.191 72.804-14.988 75.663-54.919 1.929-32.15-13.13-46.189-37.927-51.596 14.518-7.655 23.639-21.398 21.693-42.717zm-33.774 90.39c-.008 30.881-53.854 29.493-71.146 29.608l-.77-56.279c17.291-.115 71.363-6.318 71.916 26.671zm-14.386-78.993c1.018 29.102-43.315 26.671-58.312 26.922l-.858-50.983c14.997-.253 59.556-5.415 59.17 24.061zM256.002 48.49c114.604 0 207.51 92.906 207.51 207.513 0 114.604-92.906 207.509-207.51 207.509-114.606 0-207.512-92.905-207.512-207.509 0-114.607 92.906-207.513 207.512-207.513z"/></svg>